<svg width="35" height="35" viewBox="0 0 35 35" fill="none" xmlns="http://www.w3.org/2000/svg">
<g clip-path="url(#clip0_53_921)">
<path d="M29.75 0H5.25C2.35051 0 0 2.35051 0 5.25V29.75C0 32.6495 2.35051 35 5.25 35H29.75C32.6495 35 35 32.6495 35 29.75V5.25C35 2.35051 32.6495 0 29.75 0Z" fill="#F5F5F5"/>
<path d="M10.8008 26.7285V17.0215L5.19531 12.7148V24.6777C5.19531 26.0449 5.87891 26.7285 7.24609 26.7285" fill="#4285F4"/>
<path d="M10.5273 16.9531L17.5 22.2168L24.4727 16.9531V10.2539L17.5 15.5176L10.5273 10.2539" fill="#EA4335"/>
<path d="M24.1992 26.7285V17.0215L29.8047 12.7148V24.6777C29.8047 26.0449 29.1211 26.7285 27.7539 26.7285" fill="#34A853"/>
<path d="M5.19531 12.8516L10.8008 17.1582V10.459L8.75 8.88672C6.9043 7.45117 5.19531 8.88672 5.19531 10.6641" fill="#C5221F"/>
<path d="M29.8047 12.8516L24.1992 17.1582V10.459L26.25 8.88672C28.0957 7.45117 29.8047 8.88672 29.8047 10.6641" fill="#FBBC04"/>
</g>
<defs>
<clipPath id="clip0_53_921">
<rect width="35" height="35" fill="white"/>
</clipPath>
</defs>
</svg>
