<svg width="164" height="164" viewBox="0 0 164 164" fill="none" xmlns="http://www.w3.org/2000/svg">
<path d="M129.833 102.5H34.1665V44.4167H129.833V102.5ZM140.083 41C140.083 37.2261 137.024 34.1667 133.25 34.1667H30.7498C26.976 34.1667 23.9165 37.2261 23.9165 41V112.75H140.083V41Z" fill="#169C9A" stroke="black"/>
<path d="M92.2498 119.583V121.292C92.3084 122.177 91.6384 122.941 90.7535 123C90.683 123.005 90.6121 123.005 90.5415 123H73.4582C72.5732 123.059 71.8084 122.389 71.7498 121.504C71.7452 121.433 71.7452 121.362 71.7498 121.292V119.583H3.4165V123C3.4165 126.774 6.47589 129.833 10.2498 129.833H153.75C157.524 129.833 160.583 126.774 160.583 123V119.583H92.2498Z" fill="#169C9A" stroke="black"/>
<path d="M82.0002 49.5417C68.7913 49.5417 58.0835 60.2495 58.0835 73.4584C58.0835 86.6672 68.7913 97.375 82.0002 97.375C95.209 97.375 105.917 86.6672 105.917 73.4584C105.917 60.2495 95.209 49.5417 82.0002 49.5417ZM83.7085 75.1667H91.5497C90.6568 81.056 87.9101 86.5075 83.7085 90.7296V75.1667ZM83.7085 71.75V56.17C87.9144 60.3961 90.6614 65.8542 91.5497 71.75H83.7085ZM80.2918 71.75H72.7068C73.5564 65.9552 76.2105 60.5755 80.2918 56.375V71.75ZM80.2918 75.1667V90.5417C76.2181 86.3358 73.5653 80.9588 72.7068 75.1667H80.2918ZM69.2731 71.75H61.9614C62.7197 62.8018 69.3247 55.4438 78.1393 53.7271C73.2692 58.5868 70.1506 64.9261 69.2731 71.75ZM69.2731 75.1667C70.1513 82.0024 73.2832 88.3504 78.1735 93.2067C69.3457 91.4912 62.7276 84.1269 61.9614 75.1667H69.2731ZM94.9835 75.1667H102.039C101.291 84.0135 94.8246 91.3202 86.1343 93.1384C91.0019 88.2997 94.116 81.9751 94.9835 75.1667ZM94.9835 71.75C94.109 64.9594 91.0161 58.6476 86.1856 53.7954C94.8501 55.6316 101.29 62.9249 102.039 71.75H94.9835Z" fill="#169C9A" stroke="black"/>
<path d="M53.6675 143.833V133.652H54.9005V142.74H59.6334V143.833H53.6675ZM64.5851 143.992C63.8493 143.992 63.2146 143.83 62.681 143.505C62.1507 143.177 61.7414 142.72 61.453 142.133C61.168 141.543 61.0255 140.857 61.0255 140.075C61.0255 139.293 61.168 138.603 61.453 138.007C61.7414 137.407 62.1424 136.939 62.6562 136.605C63.1732 136.267 63.7764 136.098 64.4658 136.098C64.8635 136.098 65.2563 136.164 65.6441 136.296C66.0319 136.429 66.3849 136.644 66.703 136.943C67.0212 137.238 67.2748 137.629 67.4637 138.116C67.6526 138.603 67.7471 139.203 67.7471 139.916V140.413H61.8607V139.399H66.5539C66.5539 138.968 66.4677 138.583 66.2954 138.245C66.1263 137.907 65.8844 137.64 65.5695 137.445C65.258 137.249 64.8901 137.152 64.4658 137.152C63.9985 137.152 63.5941 137.268 63.2528 137.5C62.9147 137.728 62.6545 138.027 62.4722 138.394C62.2899 138.762 62.1988 139.157 62.1988 139.578V140.254C62.1988 140.831 62.2982 141.319 62.4971 141.72C62.6992 142.118 62.9793 142.421 63.3373 142.63C63.6952 142.836 64.1112 142.938 64.5851 142.938C64.8934 142.938 65.1718 142.895 65.4204 142.809C65.6723 142.72 65.8894 142.587 66.0716 142.411C66.2539 142.232 66.3948 142.01 66.4942 141.745L67.6278 142.063C67.5084 142.448 67.3079 142.786 67.0262 143.078C66.7445 143.366 66.3965 143.591 65.9822 143.754C65.5679 143.913 65.1022 143.992 64.5851 143.992ZM71.779 144.012C71.2951 144.012 70.856 143.921 70.4616 143.739C70.0671 143.553 69.7539 143.286 69.5219 142.938C69.2899 142.587 69.1739 142.163 69.1739 141.666C69.1739 141.228 69.2601 140.874 69.4324 140.602C69.6048 140.327 69.8351 140.111 70.1235 139.956C70.4118 139.8 70.73 139.684 71.078 139.607C71.4294 139.528 71.7823 139.465 72.137 139.419C72.601 139.359 72.9772 139.314 73.2655 139.284C73.5572 139.251 73.7693 139.197 73.9019 139.12C74.0378 139.044 74.1057 138.911 74.1057 138.723V138.683C74.1057 138.192 73.9715 137.811 73.703 137.539C73.4379 137.268 73.0352 137.132 72.4949 137.132C71.9348 137.132 71.4957 137.254 71.1775 137.5C70.8593 137.745 70.6356 138.007 70.5063 138.285L69.3927 137.887C69.5915 137.423 69.8567 137.062 70.1881 136.804C70.5229 136.542 70.8875 136.359 71.2819 136.257C71.6796 136.151 72.0707 136.098 72.4552 136.098C72.7004 136.098 72.9822 136.127 73.3003 136.187C73.6218 136.243 73.9317 136.361 74.23 136.54C74.5316 136.719 74.7819 136.989 74.9807 137.35C75.1796 137.712 75.279 138.196 75.279 138.802V143.833H74.1057V142.799H74.0461C73.9665 142.965 73.834 143.142 73.6483 143.331C73.4627 143.52 73.2158 143.681 72.9076 143.813C72.5993 143.946 72.2232 144.012 71.779 144.012ZM71.958 142.958C72.422 142.958 72.8131 142.867 73.1313 142.685C73.4528 142.503 73.6948 142.267 73.8572 141.979C74.0229 141.691 74.1057 141.387 74.1057 141.069V139.995C74.056 140.055 73.9466 140.11 73.7776 140.159C73.6119 140.206 73.4197 140.247 73.2009 140.284C72.9855 140.317 72.775 140.347 72.5695 140.373C72.3673 140.396 72.2033 140.416 72.0773 140.433C71.7724 140.473 71.4874 140.537 71.2222 140.627C70.9604 140.713 70.7483 140.844 70.5858 141.019C70.4268 141.192 70.3472 141.427 70.3472 141.725C70.3472 142.133 70.498 142.441 70.7996 142.65C71.1046 142.856 71.4907 142.958 71.958 142.958ZM77.4205 143.833V136.197H78.5541V137.35H78.6336C78.7728 136.973 79.0247 136.666 79.3893 136.431C79.7539 136.195 80.1649 136.078 80.6222 136.078C80.7084 136.078 80.8161 136.079 80.9454 136.083C81.0747 136.086 81.1724 136.091 81.2387 136.098V137.291C81.199 137.281 81.1078 137.266 80.9653 137.246C80.8261 137.223 80.6786 137.211 80.5228 137.211C80.1516 137.211 79.8202 137.289 79.5285 137.445C79.2401 137.597 79.0115 137.809 78.8424 138.081C78.6767 138.35 78.5938 138.656 78.5938 139.001V143.833H77.4205ZM90.8625 133.652V143.833H89.6693L84.121 135.839H84.0216V143.833H82.7886V133.652H83.9818L89.55 141.666H89.6494V133.652H90.8625ZM96.2728 143.992C95.5834 143.992 94.9785 143.828 94.4582 143.5C93.9411 143.172 93.5368 142.713 93.2451 142.123C92.9568 141.533 92.8126 140.844 92.8126 140.055C92.8126 139.259 92.9568 138.565 93.2451 137.972C93.5368 137.379 93.9411 136.918 94.4582 136.59C94.9785 136.262 95.5834 136.098 96.2728 136.098C96.9622 136.098 97.5654 136.262 98.0825 136.59C98.6028 136.918 99.0072 137.379 99.2955 137.972C99.5872 138.565 99.733 139.259 99.733 140.055C99.733 140.844 99.5872 141.533 99.2955 142.123C99.0072 142.713 98.6028 143.172 98.0825 143.5C97.5654 143.828 96.9622 143.992 96.2728 143.992ZM96.2728 142.938C96.7965 142.938 97.2274 142.804 97.5654 142.536C97.9035 142.267 98.1537 141.914 98.3161 141.477C98.4785 141.039 98.5597 140.565 98.5597 140.055C98.5597 139.545 98.4785 139.069 98.3161 138.628C98.1537 138.187 97.9035 137.831 97.5654 137.559C97.2274 137.287 96.7965 137.152 96.2728 137.152C95.7491 137.152 95.3183 137.287 94.9802 137.559C94.6421 137.831 94.3919 138.187 94.2295 138.628C94.0671 139.069 93.9859 139.545 93.9859 140.055C93.9859 140.565 94.0671 141.039 94.2295 141.477C94.3919 141.914 94.6421 142.267 94.9802 142.536C95.3183 142.804 95.7491 142.938 96.2728 142.938ZM102.994 143.833L100.668 136.197H101.901L103.551 142.044H103.631L105.261 136.197H106.514L108.125 142.024H108.205L109.855 136.197H111.088L108.761 143.833H107.608L105.938 137.967H105.818L104.148 143.833H102.994Z" fill="black"/>
</svg>
