<svg width="253" height="55" viewBox="0 0 253 55" fill="none" xmlns="http://www.w3.org/2000/svg">
<path d="M101.292 41.147V14.9652H104.462V38.3345H116.633V41.147H101.292ZM129.366 41.5561C127.474 41.5561 125.842 41.1384 124.47 40.3032C123.106 39.4595 122.053 38.2833 121.312 36.7748C120.579 35.2578 120.212 33.4936 120.212 31.4822C120.212 29.4708 120.579 27.6981 121.312 26.164C122.053 24.6214 123.085 23.4197 124.406 22.5589C125.735 21.6896 127.286 21.2549 129.059 21.2549C130.082 21.2549 131.092 21.4254 132.089 21.7663C133.086 22.1072 133.994 22.6612 134.812 23.4282C135.63 24.1867 136.282 25.1924 136.768 26.4453C137.254 27.6981 137.496 29.2407 137.496 31.0731V32.3515H122.36V29.7436H134.428C134.428 28.6356 134.207 27.647 133.764 26.7777C133.329 25.9083 132.707 25.2223 131.897 24.7194C131.096 24.2166 130.15 23.9652 129.059 23.9652C127.857 23.9652 126.818 24.2634 125.94 24.86C125.07 25.4481 124.401 26.2152 123.933 27.1612C123.464 28.1072 123.229 29.1214 123.229 30.2038V31.9424C123.229 33.4254 123.485 34.6825 123.996 35.7137C124.516 36.7365 125.237 37.5163 126.157 38.0532C127.077 38.5816 128.147 38.8458 129.366 38.8458C130.158 38.8458 130.874 38.735 131.514 38.5134C132.161 38.2833 132.72 37.9424 133.188 37.4907C133.657 37.0305 134.019 36.4595 134.275 35.7777L137.19 36.5958C136.883 37.5845 136.367 38.4538 135.643 39.2038C134.918 39.9453 134.023 40.5248 132.958 40.9424C131.893 41.3515 130.695 41.5561 129.366 41.5561ZM147.864 41.6072C146.62 41.6072 145.491 41.3728 144.477 40.9041C143.462 40.4268 142.657 39.7407 142.06 38.8458C141.464 37.9424 141.166 36.8515 141.166 35.5731C141.166 34.4481 141.387 33.5362 141.83 32.8373C142.273 32.1299 142.866 31.5759 143.607 31.1754C144.349 30.7748 145.167 30.4765 146.062 30.2805C146.965 30.076 147.873 29.914 148.785 29.7947C149.978 29.6413 150.945 29.5262 151.687 29.4495C152.437 29.3643 152.982 29.2237 153.323 29.0277C153.673 28.8316 153.847 28.4907 153.847 28.0049V27.9027C153.847 26.6413 153.502 25.6612 152.812 24.9623C152.13 24.2634 151.095 23.914 149.705 23.914C148.265 23.914 147.136 24.2294 146.318 24.86C145.499 25.4907 144.924 26.164 144.592 26.8799L141.728 25.8572C142.239 24.664 142.921 23.735 143.773 23.0703C144.634 22.397 145.572 21.9282 146.586 21.664C147.609 21.3913 148.614 21.2549 149.603 21.2549C150.234 21.2549 150.958 21.3316 151.776 21.485C152.603 21.6299 153.4 21.9325 154.167 22.3927C154.943 22.8529 155.586 23.5475 156.097 24.4765C156.609 25.4055 156.864 26.6498 156.864 28.2095V41.147H153.847V38.4879H153.694C153.489 38.914 153.148 39.37 152.671 39.8558C152.194 40.3416 151.559 40.7549 150.766 41.0958C149.974 41.4367 149.006 41.6072 147.864 41.6072ZM148.325 38.897C149.518 38.897 150.523 38.6626 151.342 38.1938C152.168 37.7251 152.791 37.12 153.208 36.3785C153.634 35.637 153.847 34.8572 153.847 34.039V31.2777C153.72 31.4311 153.438 31.5717 153.004 31.6995C152.577 31.8188 152.083 31.9254 151.521 32.0191C150.967 32.1044 150.425 32.1811 149.897 32.2492C149.377 32.3089 148.955 32.36 148.631 32.4027C147.847 32.5049 147.114 32.6711 146.433 32.9012C145.759 33.1228 145.214 33.4595 144.796 33.9112C144.387 34.3544 144.183 34.9595 144.183 35.7265C144.183 36.7748 144.57 37.5674 145.346 38.1044C146.13 38.6328 147.123 38.897 148.325 38.897ZM162.371 41.147V21.5106H165.286V24.4765H165.49C165.848 23.5049 166.496 22.7166 167.434 22.1115C168.371 21.5063 169.428 21.2038 170.604 21.2038C170.826 21.2038 171.103 21.2081 171.435 21.2166C171.767 21.2251 172.019 21.2379 172.189 21.2549V24.3231C172.087 24.2975 171.853 24.2592 171.486 24.2081C171.128 24.1484 170.749 24.1186 170.348 24.1186C169.394 24.1186 168.542 24.3188 167.792 24.7194C167.05 25.1115 166.462 25.6569 166.027 26.3558C165.601 27.0461 165.388 27.8345 165.388 28.7208V41.147H162.371ZM196.936 14.9652V41.147H193.868L179.601 20.5902H179.345V41.147H176.175V14.9652H179.243L193.561 35.5731H193.817V14.9652H196.936ZM210.848 41.5561C209.076 41.5561 207.52 41.1342 206.182 40.2904C204.853 39.4467 203.813 38.2663 203.063 36.7492C202.321 35.2322 201.951 33.4595 201.951 31.4311C201.951 29.3856 202.321 27.6001 203.063 26.0745C203.813 24.549 204.853 23.3643 206.182 22.5206C207.52 21.6768 209.076 21.2549 210.848 21.2549C212.621 21.2549 214.172 21.6768 215.502 22.5206C216.84 23.3643 217.88 24.549 218.621 26.0745C219.371 27.6001 219.746 29.3856 219.746 31.4311C219.746 33.4595 219.371 35.2322 218.621 36.7492C217.88 38.2663 216.84 39.4467 215.502 40.2904C214.172 41.1342 212.621 41.5561 210.848 41.5561ZM210.848 38.8458C212.195 38.8458 213.303 38.5007 214.172 37.8103C215.042 37.12 215.685 36.2123 216.103 35.0873C216.52 33.9623 216.729 32.7436 216.729 31.4311C216.729 30.1186 216.52 28.8956 216.103 27.762C215.685 26.6285 215.042 25.7123 214.172 25.0134C213.303 24.3146 212.195 23.9652 210.848 23.9652C209.502 23.9652 208.394 24.3146 207.525 25.0134C206.655 25.7123 206.012 26.6285 205.594 27.762C205.177 28.8956 204.968 30.1186 204.968 31.4311C204.968 32.7436 205.177 33.9623 205.594 35.0873C206.012 36.2123 206.655 37.12 207.525 37.8103C208.394 38.5007 209.502 38.8458 210.848 38.8458ZM228.133 41.147L222.15 21.5106H225.32L229.564 36.5447H229.769L233.962 21.5106H237.184L241.326 36.4936H241.53L245.775 21.5106H248.945L242.962 41.147H239.996L235.701 26.0617H235.394L231.098 41.147H228.133Z" fill="black"/>
<path d="M66.1473 39.477H16.7355V6.34655H66.1473V39.477ZM71.4414 4.3977C71.4414 2.2451 69.8612 0.5 67.912 0.5H14.9708C13.0216 0.5 11.4414 2.2451 11.4414 4.3977V45.3235H71.4414V4.3977Z" fill="#169C9A" stroke="black"/>
<path d="M46.7813 48.5V49.5C46.8119 50.018 46.4628 50.4657 46.0018 50.5C45.965 50.5027 45.9281 50.5027 45.8913 50.5H36.9911C36.53 50.5343 36.1316 50.1421 36.101 49.6241C36.0986 49.5828 36.0986 49.5413 36.101 49.5V48.5H0.5V50.5C0.5 52.7091 2.09391 54.5 4.0601 54.5H78.8223C80.7884 54.5 82.3824 52.7091 82.3824 50.5V48.5H46.7813Z" fill="#169C9A" stroke="black"/>
<path d="M41.4413 8.9707C34.619 8.9707 29.0884 15.0543 29.0884 22.5589C29.0884 30.0635 34.619 36.1472 41.4413 36.1472C48.2637 36.1472 53.7943 30.0635 53.7943 22.5589C53.7943 15.0543 48.2637 8.9707 41.4413 8.9707ZM42.3237 23.5295H46.3737C45.9125 26.8755 44.4938 29.9728 42.3237 32.3716V23.5295ZM42.3237 21.5884V12.7366C44.496 15.1376 45.9149 18.2387 46.3737 21.5884H42.3237ZM40.559 21.5884H36.6413C37.0801 18.296 38.4509 15.2395 40.559 12.8531V21.5884ZM40.559 23.5295V32.2648C38.4549 29.8752 37.0847 26.8203 36.6413 23.5295H40.559ZM34.8678 21.5884H31.0913C31.483 16.5044 34.8944 12.324 39.4472 11.3486C36.9318 14.1097 35.3211 17.7113 34.8678 21.5884ZM34.8678 23.5295C35.3214 27.4132 36.939 31.0198 39.4648 33.7789C34.9053 32.8043 31.4871 28.6203 31.0913 23.5295H34.8678ZM48.1472 23.5295H51.7913C51.4049 28.5558 48.0651 32.7071 43.5766 33.7401C46.0907 30.991 47.6991 27.3977 48.1472 23.5295ZM48.1472 21.5884C47.6955 17.7303 46.098 14.1442 43.6031 11.3875C48.0783 12.4307 51.4044 16.5744 51.7913 21.5884H48.1472Z" fill="#169C9A" stroke="black"/>
</svg>
